<mxfile host="app.diagrams.net" modified="2023-10-18T09:25:29.895Z" agent="Mozilla/5.0 (X11; Linux x86_64; rv:109.0) Gecko/20100101 Firefox/118.0" etag="9Iz-P8zy5stOq6QB3Fcn" version="22.0.4" type="device">
  <diagram name="Page-1" id="QMnpKY_nUgWbdzZ4fcwU">
    <mxGraphModel dx="1143" dy="1880" grid="0" gridSize="10" guides="1" tooltips="1" connect="1" arrows="1" fold="1" page="1" pageScale="1" pageWidth="1654" pageHeight="1169" math="0" shadow="0">
      <root>
        <mxCell id="0" />
        <mxCell id="1" parent="0" />
        <mxCell id="9gpGC4CJjmBjQRVp-zge-5" value="&lt;b&gt;Person&lt;/b&gt;" style="swimlane;fontStyle=0;childLayout=stackLayout;horizontal=1;startSize=26;fillColor=none;horizontalStack=0;resizeParent=1;resizeParentMax=0;resizeLast=0;collapsible=1;marginBottom=0;whiteSpace=wrap;html=1;" parent="1" vertex="1">
          <mxGeometry x="493" y="273" width="140" height="130" as="geometry" />
        </mxCell>
        <mxCell id="9gpGC4CJjmBjQRVp-zge-6" value="+ name: string" style="text;strokeColor=none;fillColor=none;align=left;verticalAlign=top;spacingLeft=4;spacingRight=4;overflow=hidden;rotatable=0;points=[[0,0.5],[1,0.5]];portConstraint=eastwest;whiteSpace=wrap;html=1;" parent="9gpGC4CJjmBjQRVp-zge-5" vertex="1">
          <mxGeometry y="26" width="140" height="26" as="geometry" />
        </mxCell>
        <mxCell id="9gpGC4CJjmBjQRVp-zge-13" value="+ lastName: string" style="text;strokeColor=none;fillColor=none;align=left;verticalAlign=top;spacingLeft=4;spacingRight=4;overflow=hidden;rotatable=0;points=[[0,0.5],[1,0.5]];portConstraint=eastwest;whiteSpace=wrap;html=1;" parent="9gpGC4CJjmBjQRVp-zge-5" vertex="1">
          <mxGeometry y="52" width="140" height="26" as="geometry" />
        </mxCell>
        <mxCell id="9gpGC4CJjmBjQRVp-zge-7" value="+ email: string" style="text;strokeColor=none;fillColor=none;align=left;verticalAlign=top;spacingLeft=4;spacingRight=4;overflow=hidden;rotatable=0;points=[[0,0.5],[1,0.5]];portConstraint=eastwest;whiteSpace=wrap;html=1;" parent="9gpGC4CJjmBjQRVp-zge-5" vertex="1">
          <mxGeometry y="78" width="140" height="26" as="geometry" />
        </mxCell>
        <mxCell id="9gpGC4CJjmBjQRVp-zge-8" value="+ phone: string" style="text;strokeColor=none;fillColor=none;align=left;verticalAlign=top;spacingLeft=4;spacingRight=4;overflow=hidden;rotatable=0;points=[[0,0.5],[1,0.5]];portConstraint=eastwest;whiteSpace=wrap;html=1;" parent="9gpGC4CJjmBjQRVp-zge-5" vertex="1">
          <mxGeometry y="104" width="140" height="26" as="geometry" />
        </mxCell>
        <mxCell id="9gpGC4CJjmBjQRVp-zge-9" value="&lt;b&gt;Employee (DB)&lt;/b&gt;" style="swimlane;fontStyle=0;childLayout=stackLayout;horizontal=1;startSize=26;fillColor=none;horizontalStack=0;resizeParent=1;resizeParentMax=0;resizeLast=0;collapsible=1;marginBottom=0;whiteSpace=wrap;html=1;" parent="1" vertex="1">
          <mxGeometry x="488" y="559" width="150" height="132" as="geometry" />
        </mxCell>
        <mxCell id="9gpGC4CJjmBjQRVp-zge-10" value="+ id: string" style="text;strokeColor=none;fillColor=none;align=left;verticalAlign=top;spacingLeft=4;spacingRight=4;overflow=hidden;rotatable=0;points=[[0,0.5],[1,0.5]];portConstraint=eastwest;whiteSpace=wrap;html=1;" parent="9gpGC4CJjmBjQRVp-zge-9" vertex="1">
          <mxGeometry y="26" width="150" height="26" as="geometry" />
        </mxCell>
        <mxCell id="9gpGC4CJjmBjQRVp-zge-11" value="+ password: string" style="text;strokeColor=none;fillColor=none;align=left;verticalAlign=top;spacingLeft=4;spacingRight=4;overflow=hidden;rotatable=0;points=[[0,0.5],[1,0.5]];portConstraint=eastwest;whiteSpace=wrap;html=1;" parent="9gpGC4CJjmBjQRVp-zge-9" vertex="1">
          <mxGeometry y="52" width="150" height="26" as="geometry" />
        </mxCell>
        <mxCell id="9gpGC4CJjmBjQRVp-zge-23" value="+ role: string (?)" style="text;strokeColor=none;fillColor=none;align=left;verticalAlign=top;spacingLeft=4;spacingRight=4;overflow=hidden;rotatable=0;points=[[0,0.5],[1,0.5]];portConstraint=eastwest;whiteSpace=wrap;html=1;" parent="9gpGC4CJjmBjQRVp-zge-9" vertex="1">
          <mxGeometry y="78" width="150" height="26" as="geometry" />
        </mxCell>
        <mxCell id="9gpGC4CJjmBjQRVp-zge-12" value="+ workingHours: DateTime" style="text;strokeColor=none;fillColor=none;align=left;verticalAlign=top;spacingLeft=4;spacingRight=4;overflow=hidden;rotatable=0;points=[[0,0.5],[1,0.5]];portConstraint=eastwest;whiteSpace=wrap;html=1;" parent="9gpGC4CJjmBjQRVp-zge-9" vertex="1">
          <mxGeometry y="104" width="150" height="28" as="geometry" />
        </mxCell>
        <mxCell id="9gpGC4CJjmBjQRVp-zge-16" value="Extends" style="endArrow=block;endSize=16;endFill=0;html=1;rounded=0;exitX=0.5;exitY=0;exitDx=0;exitDy=0;" parent="1" source="9gpGC4CJjmBjQRVp-zge-9" target="9gpGC4CJjmBjQRVp-zge-5" edge="1">
          <mxGeometry width="160" relative="1" as="geometry">
            <mxPoint x="826.9981907129682" y="575.38" as="sourcePoint" />
            <mxPoint x="634" y="449" as="targetPoint" />
          </mxGeometry>
        </mxCell>
        <mxCell id="9gpGC4CJjmBjQRVp-zge-45" style="edgeStyle=orthogonalEdgeStyle;rounded=0;orthogonalLoop=1;jettySize=auto;html=1;" parent="1" source="9gpGC4CJjmBjQRVp-zge-17" target="9gpGC4CJjmBjQRVp-zge-39" edge="1">
          <mxGeometry relative="1" as="geometry" />
        </mxCell>
        <mxCell id="9gpGC4CJjmBjQRVp-zge-50" style="edgeStyle=orthogonalEdgeStyle;rounded=0;orthogonalLoop=1;jettySize=auto;html=1;" parent="1" source="9gpGC4CJjmBjQRVp-zge-17" target="9gpGC4CJjmBjQRVp-zge-48" edge="1">
          <mxGeometry relative="1" as="geometry" />
        </mxCell>
        <mxCell id="9gpGC4CJjmBjQRVp-zge-17" value="&lt;b&gt;Customer&lt;/b&gt;" style="swimlane;fontStyle=0;childLayout=stackLayout;horizontal=1;startSize=26;fillColor=none;horizontalStack=0;resizeParent=1;resizeParentMax=0;resizeLast=0;collapsible=1;marginBottom=0;whiteSpace=wrap;html=1;" parent="1" vertex="1">
          <mxGeometry x="988" y="324" width="140" height="52" as="geometry" />
        </mxCell>
        <mxCell id="9gpGC4CJjmBjQRVp-zge-18" value="+ andress: string" style="text;strokeColor=none;fillColor=none;align=left;verticalAlign=top;spacingLeft=4;spacingRight=4;overflow=hidden;rotatable=0;points=[[0,0.5],[1,0.5]];portConstraint=eastwest;whiteSpace=wrap;html=1;" parent="9gpGC4CJjmBjQRVp-zge-17" vertex="1">
          <mxGeometry y="26" width="140" height="26" as="geometry" />
        </mxCell>
        <mxCell id="9gpGC4CJjmBjQRVp-zge-21" value="Extends" style="endArrow=block;endSize=16;endFill=0;html=1;rounded=0;exitX=0.5;exitY=0;exitDx=0;exitDy=0;" parent="1" source="9gpGC4CJjmBjQRVp-zge-17" target="9gpGC4CJjmBjQRVp-zge-5" edge="1">
          <mxGeometry width="160" relative="1" as="geometry">
            <mxPoint x="809" y="303" as="sourcePoint" />
            <mxPoint x="969" y="303" as="targetPoint" />
            <Array as="points">
              <mxPoint x="848" y="296" />
            </Array>
          </mxGeometry>
        </mxCell>
        <mxCell id="9gpGC4CJjmBjQRVp-zge-54" style="edgeStyle=orthogonalEdgeStyle;rounded=0;orthogonalLoop=1;jettySize=auto;html=1;" parent="1" source="9gpGC4CJjmBjQRVp-zge-24" target="9gpGC4CJjmBjQRVp-zge-31" edge="1">
          <mxGeometry relative="1" as="geometry" />
        </mxCell>
        <mxCell id="9gpGC4CJjmBjQRVp-zge-24" value="&lt;b&gt;Reservation (DB)&lt;/b&gt;" style="swimlane;fontStyle=0;childLayout=stackLayout;horizontal=1;startSize=26;fillColor=none;horizontalStack=0;resizeParent=1;resizeParentMax=0;resizeLast=0;collapsible=1;marginBottom=0;whiteSpace=wrap;html=1;" parent="1" vertex="1">
          <mxGeometry x="1186.5" y="563" width="173" height="152" as="geometry" />
        </mxCell>
        <mxCell id="9gpGC4CJjmBjQRVp-zge-25" value="+ reservationId: string" style="text;strokeColor=none;fillColor=none;align=left;verticalAlign=top;spacingLeft=4;spacingRight=4;overflow=hidden;rotatable=0;points=[[0,0.5],[1,0.5]];portConstraint=eastwest;whiteSpace=wrap;html=1;" parent="9gpGC4CJjmBjQRVp-zge-24" vertex="1">
          <mxGeometry y="26" width="173" height="26" as="geometry" />
        </mxCell>
        <mxCell id="9gpGC4CJjmBjQRVp-zge-27" value="+ peopleNum: int" style="text;strokeColor=none;fillColor=none;align=left;verticalAlign=top;spacingLeft=4;spacingRight=4;overflow=hidden;rotatable=0;points=[[0,0.5],[1,0.5]];portConstraint=eastwest;whiteSpace=wrap;html=1;" parent="9gpGC4CJjmBjQRVp-zge-24" vertex="1">
          <mxGeometry y="52" width="173" height="25" as="geometry" />
        </mxCell>
        <mxCell id="9gpGC4CJjmBjQRVp-zge-29" value="+ startTime: Date Time" style="text;strokeColor=none;fillColor=none;align=left;verticalAlign=top;spacingLeft=4;spacingRight=4;overflow=hidden;rotatable=0;points=[[0,0.5],[1,0.5]];portConstraint=eastwest;whiteSpace=wrap;html=1;" parent="9gpGC4CJjmBjQRVp-zge-24" vertex="1">
          <mxGeometry y="77" width="173" height="25" as="geometry" />
        </mxCell>
        <mxCell id="9gpGC4CJjmBjQRVp-zge-28" value="+ endTime: Date Time" style="text;strokeColor=none;fillColor=none;align=left;verticalAlign=top;spacingLeft=4;spacingRight=4;overflow=hidden;rotatable=0;points=[[0,0.5],[1,0.5]];portConstraint=eastwest;whiteSpace=wrap;html=1;" parent="9gpGC4CJjmBjQRVp-zge-24" vertex="1">
          <mxGeometry y="102" width="173" height="25" as="geometry" />
        </mxCell>
        <mxCell id="9gpGC4CJjmBjQRVp-zge-30" value="+ customer: Customer" style="text;strokeColor=none;fillColor=none;align=left;verticalAlign=top;spacingLeft=4;spacingRight=4;overflow=hidden;rotatable=0;points=[[0,0.5],[1,0.5]];portConstraint=eastwest;whiteSpace=wrap;html=1;" parent="9gpGC4CJjmBjQRVp-zge-24" vertex="1">
          <mxGeometry y="127" width="173" height="25" as="geometry" />
        </mxCell>
        <mxCell id="9gpGC4CJjmBjQRVp-zge-31" value="&lt;b&gt;Table (DB)&lt;/b&gt;" style="swimlane;fontStyle=0;childLayout=stackLayout;horizontal=1;startSize=26;fillColor=none;horizontalStack=0;resizeParent=1;resizeParentMax=0;resizeLast=0;collapsible=1;marginBottom=0;whiteSpace=wrap;html=1;" parent="1" vertex="1">
          <mxGeometry x="981" y="587" width="140" height="104" as="geometry" />
        </mxCell>
        <mxCell id="9gpGC4CJjmBjQRVp-zge-32" value="+ tableId: int" style="text;strokeColor=none;fillColor=none;align=left;verticalAlign=top;spacingLeft=4;spacingRight=4;overflow=hidden;rotatable=0;points=[[0,0.5],[1,0.5]];portConstraint=eastwest;whiteSpace=wrap;html=1;" parent="9gpGC4CJjmBjQRVp-zge-31" vertex="1">
          <mxGeometry y="26" width="140" height="26" as="geometry" />
        </mxCell>
        <mxCell id="9gpGC4CJjmBjQRVp-zge-33" value="+ maxSeat: int" style="text;strokeColor=none;fillColor=none;align=left;verticalAlign=top;spacingLeft=4;spacingRight=4;overflow=hidden;rotatable=0;points=[[0,0.5],[1,0.5]];portConstraint=eastwest;whiteSpace=wrap;html=1;" parent="9gpGC4CJjmBjQRVp-zge-31" vertex="1">
          <mxGeometry y="52" width="140" height="26" as="geometry" />
        </mxCell>
        <mxCell id="9gpGC4CJjmBjQRVp-zge-34" value="+ available: bool" style="text;strokeColor=none;fillColor=none;align=left;verticalAlign=top;spacingLeft=4;spacingRight=4;overflow=hidden;rotatable=0;points=[[0,0.5],[1,0.5]];portConstraint=eastwest;whiteSpace=wrap;html=1;" parent="9gpGC4CJjmBjQRVp-zge-31" vertex="1">
          <mxGeometry y="78" width="140" height="26" as="geometry" />
        </mxCell>
        <mxCell id="9gpGC4CJjmBjQRVp-zge-55" style="edgeStyle=orthogonalEdgeStyle;rounded=0;orthogonalLoop=1;jettySize=auto;html=1;" parent="1" source="9gpGC4CJjmBjQRVp-zge-35" target="9gpGC4CJjmBjQRVp-zge-31" edge="1">
          <mxGeometry relative="1" as="geometry" />
        </mxCell>
        <mxCell id="9gpGC4CJjmBjQRVp-zge-35" value="&lt;b&gt;Order&lt;/b&gt;" style="swimlane;fontStyle=0;childLayout=stackLayout;horizontal=1;startSize=26;fillColor=none;horizontalStack=0;resizeParent=1;resizeParentMax=0;resizeLast=0;collapsible=1;marginBottom=0;whiteSpace=wrap;html=1;" parent="1" vertex="1">
          <mxGeometry x="706" y="587" width="140" height="104" as="geometry" />
        </mxCell>
        <mxCell id="9gpGC4CJjmBjQRVp-zge-36" value="+ orderId: int" style="text;strokeColor=none;fillColor=none;align=left;verticalAlign=top;spacingLeft=4;spacingRight=4;overflow=hidden;rotatable=0;points=[[0,0.5],[1,0.5]];portConstraint=eastwest;whiteSpace=wrap;html=1;" parent="9gpGC4CJjmBjQRVp-zge-35" vertex="1">
          <mxGeometry y="26" width="140" height="26" as="geometry" />
        </mxCell>
        <mxCell id="9gpGC4CJjmBjQRVp-zge-37" value="+ List of Dish: List&amp;lt;Dish&amp;gt;" style="text;strokeColor=none;fillColor=none;align=left;verticalAlign=top;spacingLeft=4;spacingRight=4;overflow=hidden;rotatable=0;points=[[0,0.5],[1,0.5]];portConstraint=eastwest;whiteSpace=wrap;html=1;" parent="9gpGC4CJjmBjQRVp-zge-35" vertex="1">
          <mxGeometry y="52" width="140" height="26" as="geometry" />
        </mxCell>
        <mxCell id="9gpGC4CJjmBjQRVp-zge-38" value="+ forTable: bool" style="text;strokeColor=none;fillColor=none;align=left;verticalAlign=top;spacingLeft=4;spacingRight=4;overflow=hidden;rotatable=0;points=[[0,0.5],[1,0.5]];portConstraint=eastwest;whiteSpace=wrap;html=1;" parent="9gpGC4CJjmBjQRVp-zge-35" vertex="1">
          <mxGeometry y="78" width="140" height="26" as="geometry" />
        </mxCell>
        <mxCell id="9gpGC4CJjmBjQRVp-zge-44" style="edgeStyle=orthogonalEdgeStyle;rounded=0;orthogonalLoop=1;jettySize=auto;html=1;" parent="1" source="9gpGC4CJjmBjQRVp-zge-39" target="9gpGC4CJjmBjQRVp-zge-35" edge="1">
          <mxGeometry relative="1" as="geometry" />
        </mxCell>
        <mxCell id="9gpGC4CJjmBjQRVp-zge-51" value="Create" style="edgeLabel;html=1;align=center;verticalAlign=middle;resizable=0;points=[];" parent="9gpGC4CJjmBjQRVp-zge-44" vertex="1" connectable="0">
          <mxGeometry x="-0.1135" y="-2" relative="1" as="geometry">
            <mxPoint as="offset" />
          </mxGeometry>
        </mxCell>
        <mxCell id="9gpGC4CJjmBjQRVp-zge-39" value="&lt;b&gt;Waiter&lt;/b&gt;" style="swimlane;fontStyle=0;childLayout=stackLayout;horizontal=1;startSize=26;fillColor=none;horizontalStack=0;resizeParent=1;resizeParentMax=0;resizeLast=0;collapsible=1;marginBottom=0;whiteSpace=wrap;html=1;" parent="1" vertex="1">
          <mxGeometry x="706" y="421" width="140" height="52" as="geometry" />
        </mxCell>
        <mxCell id="9gpGC4CJjmBjQRVp-zge-42" value="createOrder( );" style="text;strokeColor=none;fillColor=none;align=left;verticalAlign=top;spacingLeft=4;spacingRight=4;overflow=hidden;rotatable=0;points=[[0,0.5],[1,0.5]];portConstraint=eastwest;whiteSpace=wrap;html=1;" parent="9gpGC4CJjmBjQRVp-zge-39" vertex="1">
          <mxGeometry y="26" width="140" height="26" as="geometry" />
        </mxCell>
        <mxCell id="9gpGC4CJjmBjQRVp-zge-43" value="Extends" style="endArrow=block;endSize=16;endFill=0;html=1;rounded=0;" parent="1" source="9gpGC4CJjmBjQRVp-zge-9" target="9gpGC4CJjmBjQRVp-zge-39" edge="1">
          <mxGeometry width="160" relative="1" as="geometry">
            <mxPoint x="669" y="444" as="sourcePoint" />
            <mxPoint x="814" y="424" as="targetPoint" />
          </mxGeometry>
        </mxCell>
        <mxCell id="9gpGC4CJjmBjQRVp-zge-52" style="edgeStyle=orthogonalEdgeStyle;rounded=0;orthogonalLoop=1;jettySize=auto;html=1;" parent="1" source="9gpGC4CJjmBjQRVp-zge-48" target="9gpGC4CJjmBjQRVp-zge-24" edge="1">
          <mxGeometry relative="1" as="geometry" />
        </mxCell>
        <mxCell id="9gpGC4CJjmBjQRVp-zge-53" value="Create" style="edgeLabel;html=1;align=center;verticalAlign=middle;resizable=0;points=[];" parent="9gpGC4CJjmBjQRVp-zge-52" vertex="1" connectable="0">
          <mxGeometry x="-0.1111" y="-3" relative="1" as="geometry">
            <mxPoint as="offset" />
          </mxGeometry>
        </mxCell>
        <mxCell id="ac5Oy0qzjt6PamUdByvo-28" style="edgeStyle=orthogonalEdgeStyle;rounded=0;orthogonalLoop=1;jettySize=auto;html=1;" edge="1" parent="1" source="9gpGC4CJjmBjQRVp-zge-48" target="ac5Oy0qzjt6PamUdByvo-19">
          <mxGeometry relative="1" as="geometry">
            <Array as="points">
              <mxPoint x="1386" y="425" />
              <mxPoint x="1386" y="142" />
            </Array>
          </mxGeometry>
        </mxCell>
        <mxCell id="ac5Oy0qzjt6PamUdByvo-33" style="edgeStyle=orthogonalEdgeStyle;rounded=0;orthogonalLoop=1;jettySize=auto;html=1;" edge="1" parent="1" source="9gpGC4CJjmBjQRVp-zge-48" target="ac5Oy0qzjt6PamUdByvo-23">
          <mxGeometry relative="1" as="geometry">
            <Array as="points">
              <mxPoint x="1585" y="425" />
              <mxPoint x="1585" y="1028" />
            </Array>
          </mxGeometry>
        </mxCell>
        <mxCell id="9gpGC4CJjmBjQRVp-zge-48" value="&lt;b&gt;Manager&lt;/b&gt;" style="swimlane;fontStyle=0;childLayout=stackLayout;horizontal=1;startSize=26;fillColor=none;horizontalStack=0;resizeParent=1;resizeParentMax=0;resizeLast=0;collapsible=1;marginBottom=0;whiteSpace=wrap;html=1;" parent="1" vertex="1">
          <mxGeometry x="1203" y="399" width="140" height="52" as="geometry" />
        </mxCell>
        <mxCell id="9gpGC4CJjmBjQRVp-zge-49" value="createReservation( );" style="text;strokeColor=none;fillColor=none;align=left;verticalAlign=top;spacingLeft=4;spacingRight=4;overflow=hidden;rotatable=0;points=[[0,0.5],[1,0.5]];portConstraint=eastwest;whiteSpace=wrap;html=1;" parent="9gpGC4CJjmBjQRVp-zge-48" vertex="1">
          <mxGeometry y="26" width="140" height="26" as="geometry" />
        </mxCell>
        <mxCell id="9gpGC4CJjmBjQRVp-zge-56" value="&lt;b&gt;Check (DB)&lt;/b&gt;" style="swimlane;fontStyle=0;childLayout=stackLayout;horizontal=1;startSize=26;fillColor=none;horizontalStack=0;resizeParent=1;resizeParentMax=0;resizeLast=0;collapsible=1;marginBottom=0;whiteSpace=wrap;html=1;" parent="1" vertex="1">
          <mxGeometry x="461" y="754" width="140" height="156" as="geometry" />
        </mxCell>
        <mxCell id="9gpGC4CJjmBjQRVp-zge-57" value="+ checkId: int" style="text;strokeColor=none;fillColor=none;align=left;verticalAlign=top;spacingLeft=4;spacingRight=4;overflow=hidden;rotatable=0;points=[[0,0.5],[1,0.5]];portConstraint=eastwest;whiteSpace=wrap;html=1;" parent="9gpGC4CJjmBjQRVp-zge-56" vertex="1">
          <mxGeometry y="26" width="140" height="26" as="geometry" />
        </mxCell>
        <mxCell id="9gpGC4CJjmBjQRVp-zge-58" value="+ amount: double" style="text;strokeColor=none;fillColor=none;align=left;verticalAlign=top;spacingLeft=4;spacingRight=4;overflow=hidden;rotatable=0;points=[[0,0.5],[1,0.5]];portConstraint=eastwest;whiteSpace=wrap;html=1;" parent="9gpGC4CJjmBjQRVp-zge-56" vertex="1">
          <mxGeometry y="52" width="140" height="26" as="geometry" />
        </mxCell>
        <mxCell id="9gpGC4CJjmBjQRVp-zge-59" value="+ tip: double" style="text;strokeColor=none;fillColor=none;align=left;verticalAlign=top;spacingLeft=4;spacingRight=4;overflow=hidden;rotatable=0;points=[[0,0.5],[1,0.5]];portConstraint=eastwest;whiteSpace=wrap;html=1;" parent="9gpGC4CJjmBjQRVp-zge-56" vertex="1">
          <mxGeometry y="78" width="140" height="26" as="geometry" />
        </mxCell>
        <mxCell id="9gpGC4CJjmBjQRVp-zge-91" value="+ tax: double" style="text;strokeColor=none;fillColor=none;align=left;verticalAlign=top;spacingLeft=4;spacingRight=4;overflow=hidden;rotatable=0;points=[[0,0.5],[1,0.5]];portConstraint=eastwest;whiteSpace=wrap;html=1;" parent="9gpGC4CJjmBjQRVp-zge-56" vertex="1">
          <mxGeometry y="104" width="140" height="26" as="geometry" />
        </mxCell>
        <mxCell id="9gpGC4CJjmBjQRVp-zge-90" value="+ isPaid: bool" style="text;strokeColor=none;fillColor=none;align=left;verticalAlign=top;spacingLeft=4;spacingRight=4;overflow=hidden;rotatable=0;points=[[0,0.5],[1,0.5]];portConstraint=eastwest;whiteSpace=wrap;html=1;" parent="9gpGC4CJjmBjQRVp-zge-56" vertex="1">
          <mxGeometry y="130" width="140" height="26" as="geometry" />
        </mxCell>
        <mxCell id="9gpGC4CJjmBjQRVp-zge-74" style="edgeStyle=orthogonalEdgeStyle;rounded=0;orthogonalLoop=1;jettySize=auto;html=1;" parent="1" source="9gpGC4CJjmBjQRVp-zge-62" target="9gpGC4CJjmBjQRVp-zge-35" edge="1">
          <mxGeometry relative="1" as="geometry" />
        </mxCell>
        <mxCell id="9gpGC4CJjmBjQRVp-zge-62" value="&lt;b&gt;Menu&lt;/b&gt;" style="swimlane;fontStyle=0;childLayout=stackLayout;horizontal=1;startSize=26;fillColor=none;horizontalStack=0;resizeParent=1;resizeParentMax=0;resizeLast=0;collapsible=1;marginBottom=0;whiteSpace=wrap;html=1;" parent="1" vertex="1">
          <mxGeometry x="677" y="780" width="355" height="52" as="geometry" />
        </mxCell>
        <mxCell id="9gpGC4CJjmBjQRVp-zge-63" value="+ List of Category: Dictonary&amp;lt;string, List&amp;lt;Dish&amp;gt; listCategory&amp;gt;" style="text;strokeColor=none;fillColor=none;align=left;verticalAlign=top;spacingLeft=4;spacingRight=4;overflow=hidden;rotatable=0;points=[[0,0.5],[1,0.5]];portConstraint=eastwest;whiteSpace=wrap;html=1;" parent="9gpGC4CJjmBjQRVp-zge-62" vertex="1">
          <mxGeometry y="26" width="355" height="26" as="geometry" />
        </mxCell>
        <mxCell id="9gpGC4CJjmBjQRVp-zge-76" style="edgeStyle=orthogonalEdgeStyle;rounded=0;orthogonalLoop=1;jettySize=auto;html=1;" parent="1" source="9gpGC4CJjmBjQRVp-zge-70" target="9gpGC4CJjmBjQRVp-zge-62" edge="1">
          <mxGeometry relative="1" as="geometry" />
        </mxCell>
        <mxCell id="9gpGC4CJjmBjQRVp-zge-70" value="&lt;b&gt;Dish (DB)&lt;/b&gt;" style="swimlane;fontStyle=0;childLayout=stackLayout;horizontal=1;startSize=26;fillColor=none;horizontalStack=0;resizeParent=1;resizeParentMax=0;resizeLast=0;collapsible=1;marginBottom=0;whiteSpace=wrap;html=1;" parent="1" vertex="1">
          <mxGeometry x="1128" y="754" width="167" height="213" as="geometry" />
        </mxCell>
        <mxCell id="9gpGC4CJjmBjQRVp-zge-71" value="+ dishId: int" style="text;strokeColor=none;fillColor=none;align=left;verticalAlign=top;spacingLeft=4;spacingRight=4;overflow=hidden;rotatable=0;points=[[0,0.5],[1,0.5]];portConstraint=eastwest;whiteSpace=wrap;html=1;" parent="9gpGC4CJjmBjQRVp-zge-70" vertex="1">
          <mxGeometry y="26" width="167" height="26" as="geometry" />
        </mxCell>
        <mxCell id="9gpGC4CJjmBjQRVp-zge-72" value="+ name: string" style="text;strokeColor=none;fillColor=none;align=left;verticalAlign=top;spacingLeft=4;spacingRight=4;overflow=hidden;rotatable=0;points=[[0,0.5],[1,0.5]];portConstraint=eastwest;whiteSpace=wrap;html=1;" parent="9gpGC4CJjmBjQRVp-zge-70" vertex="1">
          <mxGeometry y="52" width="167" height="26" as="geometry" />
        </mxCell>
        <mxCell id="9gpGC4CJjmBjQRVp-zge-73" value="+ description: string" style="text;strokeColor=none;fillColor=none;align=left;verticalAlign=top;spacingLeft=4;spacingRight=4;overflow=hidden;rotatable=0;points=[[0,0.5],[1,0.5]];portConstraint=eastwest;whiteSpace=wrap;html=1;" parent="9gpGC4CJjmBjQRVp-zge-70" vertex="1">
          <mxGeometry y="78" width="167" height="26" as="geometry" />
        </mxCell>
        <mxCell id="9gpGC4CJjmBjQRVp-zge-79" value="+ price: double" style="text;strokeColor=none;fillColor=none;align=left;verticalAlign=top;spacingLeft=4;spacingRight=4;overflow=hidden;rotatable=0;points=[[0,0.5],[1,0.5]];portConstraint=eastwest;whiteSpace=wrap;html=1;" parent="9gpGC4CJjmBjQRVp-zge-70" vertex="1">
          <mxGeometry y="104" width="167" height="26" as="geometry" />
        </mxCell>
        <mxCell id="9gpGC4CJjmBjQRVp-zge-78" value="+ available: int" style="text;strokeColor=none;fillColor=none;align=left;verticalAlign=top;spacingLeft=4;spacingRight=4;overflow=hidden;rotatable=0;points=[[0,0.5],[1,0.5]];portConstraint=eastwest;whiteSpace=wrap;html=1;" parent="9gpGC4CJjmBjQRVp-zge-70" vertex="1">
          <mxGeometry y="130" width="167" height="26" as="geometry" />
        </mxCell>
        <mxCell id="9gpGC4CJjmBjQRVp-zge-77" value="+ category: string (ENUM ?)" style="text;strokeColor=none;fillColor=none;align=left;verticalAlign=top;spacingLeft=4;spacingRight=4;overflow=hidden;rotatable=0;points=[[0,0.5],[1,0.5]];portConstraint=eastwest;whiteSpace=wrap;html=1;" parent="9gpGC4CJjmBjQRVp-zge-70" vertex="1">
          <mxGeometry y="156" width="167" height="26" as="geometry" />
        </mxCell>
        <mxCell id="9gpGC4CJjmBjQRVp-zge-80" value="+ ingredients: List&amp;lt;Ingredient&amp;gt;" style="text;strokeColor=none;fillColor=none;align=left;verticalAlign=top;spacingLeft=4;spacingRight=4;overflow=hidden;rotatable=0;points=[[0,0.5],[1,0.5]];portConstraint=eastwest;whiteSpace=wrap;html=1;" parent="9gpGC4CJjmBjQRVp-zge-70" vertex="1">
          <mxGeometry y="182" width="167" height="31" as="geometry" />
        </mxCell>
        <mxCell id="9gpGC4CJjmBjQRVp-zge-85" style="edgeStyle=orthogonalEdgeStyle;rounded=0;orthogonalLoop=1;jettySize=auto;html=1;" parent="1" source="9gpGC4CJjmBjQRVp-zge-81" target="9gpGC4CJjmBjQRVp-zge-80" edge="1">
          <mxGeometry relative="1" as="geometry" />
        </mxCell>
        <mxCell id="9gpGC4CJjmBjQRVp-zge-81" value="&lt;b&gt;Ingredient (DB)&lt;br&gt;&lt;/b&gt;" style="swimlane;fontStyle=0;childLayout=stackLayout;horizontal=1;startSize=26;fillColor=none;horizontalStack=0;resizeParent=1;resizeParentMax=0;resizeLast=0;collapsible=1;marginBottom=0;whiteSpace=wrap;html=1;" parent="1" vertex="1">
          <mxGeometry x="1348" y="912.5" width="140" height="78" as="geometry" />
        </mxCell>
        <mxCell id="9gpGC4CJjmBjQRVp-zge-82" value="+ name: string (ENUM ?)" style="text;strokeColor=none;fillColor=none;align=left;verticalAlign=top;spacingLeft=4;spacingRight=4;overflow=hidden;rotatable=0;points=[[0,0.5],[1,0.5]];portConstraint=eastwest;whiteSpace=wrap;html=1;" parent="9gpGC4CJjmBjQRVp-zge-81" vertex="1">
          <mxGeometry y="26" width="140" height="26" as="geometry" />
        </mxCell>
        <mxCell id="9gpGC4CJjmBjQRVp-zge-83" value="+ quantity: int" style="text;strokeColor=none;fillColor=none;align=left;verticalAlign=top;spacingLeft=4;spacingRight=4;overflow=hidden;rotatable=0;points=[[0,0.5],[1,0.5]];portConstraint=eastwest;whiteSpace=wrap;html=1;" parent="9gpGC4CJjmBjQRVp-zge-81" vertex="1">
          <mxGeometry y="52" width="140" height="26" as="geometry" />
        </mxCell>
        <mxCell id="9gpGC4CJjmBjQRVp-zge-86" value="&lt;b&gt;IPayment&lt;/b&gt; (?)" style="swimlane;fontStyle=0;childLayout=stackLayout;horizontal=1;startSize=26;fillColor=none;horizontalStack=0;resizeParent=1;resizeParentMax=0;resizeLast=0;collapsible=1;marginBottom=0;whiteSpace=wrap;html=1;" parent="1" vertex="1">
          <mxGeometry x="52" y="273" width="140" height="52" as="geometry" />
        </mxCell>
        <mxCell id="9gpGC4CJjmBjQRVp-zge-87" value="makePayment( )" style="text;strokeColor=none;fillColor=none;align=left;verticalAlign=top;spacingLeft=4;spacingRight=4;overflow=hidden;rotatable=0;points=[[0,0.5],[1,0.5]];portConstraint=eastwest;whiteSpace=wrap;html=1;" parent="9gpGC4CJjmBjQRVp-zge-86" vertex="1">
          <mxGeometry y="26" width="140" height="26" as="geometry" />
        </mxCell>
        <mxCell id="9gpGC4CJjmBjQRVp-zge-92" value="Extends" style="endArrow=block;endSize=16;endFill=0;html=1;rounded=0;exitX=0.001;exitY=0.99;exitDx=0;exitDy=0;exitPerimeter=0;entryX=1;entryY=0;entryDx=0;entryDy=0;" parent="1" source="9gpGC4CJjmBjQRVp-zge-38" target="9gpGC4CJjmBjQRVp-zge-56" edge="1">
          <mxGeometry width="160" relative="1" as="geometry">
            <mxPoint x="611" y="740" as="sourcePoint" />
            <mxPoint x="771" y="740" as="targetPoint" />
          </mxGeometry>
        </mxCell>
        <mxCell id="ac5Oy0qzjt6PamUdByvo-5" style="edgeStyle=orthogonalEdgeStyle;rounded=0;orthogonalLoop=1;jettySize=auto;html=1;" edge="1" parent="1" source="ac5Oy0qzjt6PamUdByvo-1" target="9gpGC4CJjmBjQRVp-zge-81">
          <mxGeometry relative="1" as="geometry" />
        </mxCell>
        <mxCell id="ac5Oy0qzjt6PamUdByvo-1" value="&lt;b&gt;SuppliesManager&lt;/b&gt;" style="swimlane;fontStyle=0;childLayout=stackLayout;horizontal=1;startSize=26;fillColor=none;horizontalStack=0;resizeParent=1;resizeParentMax=0;resizeLast=0;collapsible=1;marginBottom=0;whiteSpace=wrap;html=1;" vertex="1" parent="1">
          <mxGeometry x="1348" y="795" width="140" height="52" as="geometry" />
        </mxCell>
        <mxCell id="ac5Oy0qzjt6PamUdByvo-2" value="+ field: type" style="text;strokeColor=none;fillColor=none;align=left;verticalAlign=top;spacingLeft=4;spacingRight=4;overflow=hidden;rotatable=0;points=[[0,0.5],[1,0.5]];portConstraint=eastwest;whiteSpace=wrap;html=1;" vertex="1" parent="ac5Oy0qzjt6PamUdByvo-1">
          <mxGeometry y="26" width="140" height="26" as="geometry" />
        </mxCell>
        <mxCell id="ac5Oy0qzjt6PamUdByvo-6" style="edgeStyle=orthogonalEdgeStyle;rounded=0;orthogonalLoop=1;jettySize=auto;html=1;" edge="1" parent="1" source="9gpGC4CJjmBjQRVp-zge-49" target="ac5Oy0qzjt6PamUdByvo-1">
          <mxGeometry relative="1" as="geometry" />
        </mxCell>
        <mxCell id="ac5Oy0qzjt6PamUdByvo-31" style="edgeStyle=orthogonalEdgeStyle;rounded=0;orthogonalLoop=1;jettySize=auto;html=1;" edge="1" parent="1" source="ac5Oy0qzjt6PamUdByvo-19" target="9gpGC4CJjmBjQRVp-zge-9">
          <mxGeometry relative="1" as="geometry">
            <Array as="points">
              <mxPoint x="346" y="625" />
            </Array>
          </mxGeometry>
        </mxCell>
        <mxCell id="ac5Oy0qzjt6PamUdByvo-19" value="EmployeeManager" style="swimlane;fontStyle=1;align=center;verticalAlign=top;childLayout=stackLayout;horizontal=1;startSize=26;horizontalStack=0;resizeParent=1;resizeParentMax=0;resizeLast=0;collapsible=1;marginBottom=0;whiteSpace=wrap;html=1;" vertex="1" parent="1">
          <mxGeometry x="266" y="189" width="160" height="52" as="geometry" />
        </mxCell>
        <mxCell id="ac5Oy0qzjt6PamUdByvo-22" value="+ method(type): type" style="text;strokeColor=none;fillColor=none;align=left;verticalAlign=top;spacingLeft=4;spacingRight=4;overflow=hidden;rotatable=0;points=[[0,0.5],[1,0.5]];portConstraint=eastwest;whiteSpace=wrap;html=1;" vertex="1" parent="ac5Oy0qzjt6PamUdByvo-19">
          <mxGeometry y="26" width="160" height="26" as="geometry" />
        </mxCell>
        <mxCell id="ac5Oy0qzjt6PamUdByvo-34" style="edgeStyle=orthogonalEdgeStyle;rounded=0;orthogonalLoop=1;jettySize=auto;html=1;" edge="1" parent="1" source="ac5Oy0qzjt6PamUdByvo-23" target="9gpGC4CJjmBjQRVp-zge-56">
          <mxGeometry relative="1" as="geometry" />
        </mxCell>
        <mxCell id="ac5Oy0qzjt6PamUdByvo-23" value="CheckManager" style="swimlane;fontStyle=1;align=center;verticalAlign=top;childLayout=stackLayout;horizontal=1;startSize=26;horizontalStack=0;resizeParent=1;resizeParentMax=0;resizeLast=0;collapsible=1;marginBottom=0;whiteSpace=wrap;html=1;" vertex="1" parent="1">
          <mxGeometry x="747" y="931" width="160" height="52" as="geometry" />
        </mxCell>
        <mxCell id="ac5Oy0qzjt6PamUdByvo-26" value="+ method(type): type" style="text;strokeColor=none;fillColor=none;align=left;verticalAlign=top;spacingLeft=4;spacingRight=4;overflow=hidden;rotatable=0;points=[[0,0.5],[1,0.5]];portConstraint=eastwest;whiteSpace=wrap;html=1;" vertex="1" parent="ac5Oy0qzjt6PamUdByvo-23">
          <mxGeometry y="26" width="160" height="26" as="geometry" />
        </mxCell>
      </root>
    </mxGraphModel>
  </diagram>
</mxfile>
